<svg xmlns="http://www.w3.org/2000/svg" width="1200" height="660" viewBox="0 0 1200 660" role="img" aria-labelledby="title desc">
  <title id="title">How Thinking Partner Works</title>
  <desc id="desc">A four-step workflow from mapping a current thought to user confirmation before saving.</desc>
  <defs>
    <marker id="arrow" viewBox="0 0 10 10" refX="8" refY="5" markerWidth="7" markerHeight="7" orient="auto-start-reverse">
      <path d="M 0 0 L 10 5 L 0 10 z" fill="#8E5A7D"/>
    </marker>
  </defs>

  <rect width="1200" height="660" rx="28" fill="#FFF9EF"/>
  <rect x="1" y="1" width="1198" height="658" rx="27" fill="none" stroke="#E8D8C8" stroke-width="2"/>

  <g font-family="-apple-system, BlinkMacSystemFont, Segoe UI, Arial, sans-serif">
    <text x="64" y="70" font-size="34" font-weight="720" letter-spacing="-0.8" fill="#1F2430">How Thinking Partner Works</text>
    <text x="64" y="98" font-size="16" fill="#6B6470">One clear move at a time. Every long-term change stays reviewable.</text>

    <path d="M 574 226 L 620 226" stroke="#8E5A7D" stroke-width="2.5" marker-end="url(#arrow)"/>
    <path d="M 880 340 C 880 366, 602 346, 602 376 C 602 402, 574 486, 574 486" fill="none" stroke="#B8A6C9" stroke-width="2.5" stroke-dasharray="6 7" marker-end="url(#arrow)"/>
    <path d="M 574 486 L 620 486" stroke="#8E5A7D" stroke-width="2.5" marker-end="url(#arrow)"/>

    <g>
      <rect x="64" y="126" width="500" height="210" rx="20" fill="#FFFFFF" stroke="#E8D8C8"/>
      <rect x="64" y="126" width="500" height="9" rx="4.5" fill="#F4C84A"/>
      <circle cx="112" cy="181" r="25" fill="#FFF4C8"/>
      <text x="103" y="190" font-size="23" font-weight="750" fill="#8E5A7D">1</text>
      <text x="154" y="187" font-size="22" font-weight="700" fill="#1F2430">Map the current thought</text>
      <text x="104" y="236" font-size="17" fill="#6B6470">
        <tspan x="104" dy="0">Turn messy expression into questions, assumptions,</tspan>
        <tspan x="104" dy="26">tensions, unknowns, and one useful next probe.</tspan>
      </text>
      <rect x="104" y="292" width="160" height="24" rx="12" fill="#FFF9EF"/>
      <text x="120" y="309" font-size="12" font-weight="700" letter-spacing="0.8" fill="#8E5A7D">CURRENT CONVERSATION</text>
    </g>

    <g>
      <rect x="636" y="126" width="500" height="210" rx="20" fill="#FFFFFF" stroke="#E8D8C8"/>
      <rect x="636" y="126" width="500" height="9" rx="4.5" fill="#F7B7C8"/>
      <circle cx="684" cy="181" r="25" fill="#FDE7ED"/>
      <text x="675" y="190" font-size="23" font-weight="750" fill="#8E5A7D">2</text>
      <text x="726" y="187" font-size="22" font-weight="700" fill="#1F2430">Review past sessions</text>
      <text x="676" y="236" font-size="17" fill="#6B6470">
        <tspan x="676" dy="0">Use explicitly saved Session Records as evidence—</tspan>
        <tspan x="676" dy="26">not as complete history or final truth.</tspan>
      </text>
      <rect x="676" y="292" width="152" height="24" rx="12" fill="#FFF5F7"/>
      <text x="692" y="309" font-size="12" font-weight="700" letter-spacing="0.8" fill="#8E5A7D">CITED SESSION IDS</text>
    </g>

    <g>
      <rect x="64" y="386" width="500" height="210" rx="20" fill="#FFFFFF" stroke="#E8D8C8"/>
      <rect x="64" y="386" width="500" height="9" rx="4.5" fill="#B8A6C9"/>
      <circle cx="112" cy="441" r="25" fill="#EEE9F3"/>
      <text x="103" y="450" font-size="23" font-weight="750" fill="#8E5A7D">3</text>
      <text x="154" y="447" font-size="22" font-weight="700" fill="#1F2430">Propose profile patches</text>
      <text x="104" y="496" font-size="17" fill="#6B6470">
        <tspan x="104" dy="0">Suggest a possible model update as a pending,</tspan>
        <tspan x="104" dy="26">editable change with traceable evidence.</tspan>
      </text>
      <rect x="104" y="552" width="132" height="24" rx="12" fill="#F4F0F7"/>
      <text x="120" y="569" font-size="12" font-weight="700" letter-spacing="0.8" fill="#8E5A7D">STATUS: PROPOSED</text>
    </g>

    <g>
      <rect x="636" y="386" width="500" height="210" rx="20" fill="#FFFFFF" stroke="#E97862" stroke-width="2"/>
      <rect x="636" y="386" width="500" height="9" rx="4.5" fill="#E97862"/>
      <circle cx="684" cy="441" r="25" fill="#FCE7E2"/>
      <text x="675" y="450" font-size="23" font-weight="750" fill="#8E5A7D">4</text>
      <text x="726" y="447" font-size="22" font-weight="700" fill="#1F2430">Confirm before saving</text>
      <text x="676" y="496" font-size="17" fill="#6B6470">
        <tspan x="676" dy="0">Nothing enters the Thinking Profile until the user</tspan>
        <tspan x="676" dy="26">explicitly confirms the proposed wording.</tspan>
      </text>
      <rect x="676" y="552" width="170" height="24" rx="12" fill="#FFF0EC"/>
      <text x="692" y="569" font-size="12" font-weight="700" letter-spacing="0.8" fill="#8E5A7D">USER AUTHORITY FIRST</text>
    </g>
  </g>
</svg>

